<?xml version="1.0" encoding="UTF-8"?>
<svg id="Lager_1" xmlns="http://www.w3.org/2000/svg" version="1.1" viewBox="0 0 554.4 88.9">
  <!-- Generator: Adobe Illustrator 29.1.0, SVG Export Plug-In . SVG Version: 2.1.0 Build 142)  -->
  <defs>
    <style>
      .st0 {
        fill: #1e4841;
      }
    </style>
  </defs>
  <g>
    <path class="st0" d="M59.5,55h0v-10.1c-1.3.2-2.6.2-3.8-.3s-2.3-1.2-3-2.2c-1.3,1.6-3.3,2.6-5.5,2.6s-4.2-1-5.5-2.6c-.8,1-1.8,1.7-3.1,2.2-1.2.5-2.6.5-3.8.3v10.1h0c0,.8.3,1.5.8,2.1.6.6,1.3.9,2.1.9h3.1v-5.3c0-2.3,1.8-4.1,4.1-4.1h4.7c2.3,0,4.1,1.8,4.1,4.1v5.3h3.1c.8,0,1.5-.3,2.1-.9.6-.6.9-1.3.8-2.1h0Z"/>
    <path class="st0" d="M61.6,36.9l-1.9-5.2h0c0-.5-.5-.8-.9-.8h-23.4c-.4,0-.8.3-.9.7h0c0,.1-1.9,5.3-1.9,5.3-.4,1.5.2,3.1,1.5,4,1,.7,2.2.8,3.3.4,1.1-.4,2-1.3,2.3-2.5l.3-1.3v-1.2c0-1,.8-1.8,1.8-1.7,1,0,1.8.8,1.7,1.8v1.3c0,2,1.6,3.7,3.6,3.7s3.7-1.6,3.7-3.7v-1.3c0-1,.8-1.8,1.7-1.8s1.8.8,1.8,1.7v1.1l.3,1.3c.3,1.2,1.1,2.1,2.3,2.5,1.1.4,2.4.3,3.3-.4,1.3-.9,1.9-2.5,1.5-4h0Z"/>
    <path class="st0" d="M42.7,8.1C21,17.4,6.1,17.6,6.1,40.2s20,32.4,40.9,40.9c23.2,9.4,40.9-18.3,40.9-40.9S63.4-.7,42.7,8.1ZM63,54.9h0c0,1.7-.7,3.4-1.9,4.6-1.2,1.2-2.9,1.9-4.6,1.9h-19.1c-1.7,0-3.4-.7-4.6-1.9-1.2-1.2-1.9-2.9-1.9-4.6h0v-11.8c-1.8-1.8-2.7-4.6-2-7.2v-.2l2-5.3h0c.6-1.9,2.3-3.1,4.3-3.1h23.4c2,0,3.7,1.3,4.3,3.1h0l2,5.3v.2c.7,2.6,0,5.4-2.1,7.2v11.8h.2Z"/>
    <path class="st0" d="M50,58v-5.3c0-.3-.3-.6-.6-.6h-4.7c-.3,0-.6.3-.6.6v5.3s5.9,0,5.9,0Z"/>
  </g>
  <g>
    <path class="st0" d="M117.8,68.5c-4,0-7.5-.9-10.5-2.6-3.1-1.7-5.4-4.1-7.1-7.2-1.7-3.1-2.5-6.6-2.5-10.5s.8-7.8,2.5-10.9c1.7-3.1,4.1-5.6,7.1-7.5,3-1.8,6.6-2.7,10.6-2.7s7.3.9,10.3,2.6c2.9,1.7,5.2,4,6.8,6.9,1.6,2.9,2.4,6.2,2.4,10s0,1.1,0,1.8c0,.3,0,.6,0,.9,0,.6-.6,1.1-1.2,1.1h-29.7c-.7,0-1.2-.5-1.2-1.2v-4.1c0-.7.5-1.2,1.2-1.2h19c.7,0,1.3-.7,1.2-1.4-.4-1.8-1.2-3.3-2.5-4.6-1.6-1.5-3.7-2.3-6.1-2.3s-3.5.4-5,1.3c-1.5.9-2.7,2.1-3.6,3.8-.9,1.6-1.3,3.7-1.3,6.2v2.3c0,2.1.4,4,1.2,5.6.8,1.6,1.9,2.8,3.4,3.7,1.5.9,3.2,1.3,5.1,1.3s3.6-.4,4.8-1.2c1-.7,1.9-1.6,2.5-2.6s.6-.6,1-.6h8.4c.8,0,1.4.8,1.1,1.6-.7,1.8-1.8,3.5-3.1,5.1-1.8,2-3.9,3.6-6.4,4.7-2.5,1.1-5.3,1.7-8.4,1.7Z"/>
    <path class="st0" d="M164.8,68.5c-2,0-3.8-.3-5.4-.8-1.6-.5-3-1.2-4.2-2.1-.6-.4-1.1-.9-1.6-1.4s-1.8-.3-2,.6l-.4,1.9c-.1.5-.6.9-1.2.9h-7.3c-.7,0-1.2-.5-1.2-1.2V12.2c0-.7.5-1.2,1.2-1.2h8.2c.7,0,1.2.5,1.2,1.2v18.1c0,1,1.2,1.6,2,.9s1.9-1.6,3-2.3c2.1-1.2,4.6-1.8,7.7-1.8s6.8.9,9.7,2.7c2.8,1.8,5.1,4.3,6.8,7.4,1.7,3.1,2.5,6.6,2.5,10.5s-.8,7.5-2.5,10.6c-1.6,3.1-3.9,5.6-6.7,7.4-2.9,1.8-6.1,2.7-9.8,2.7ZM162.4,59.2c2,0,3.9-.5,5.5-1.5,1.6-1,2.8-2.3,3.8-4,.9-1.7,1.4-3.7,1.4-6s-.5-4.2-1.4-5.9c-.9-1.8-2.2-3.1-3.8-4.1-1.6-1-3.4-1.5-5.5-1.5s-3.9.5-5.5,1.5c-1.6,1-2.8,2.3-3.7,4-.9,1.7-1.3,3.7-1.3,6s.4,4.2,1.3,5.9c.9,1.7,2.1,3,3.7,4,1.6,1,3.4,1.5,5.5,1.5Z"/>
    <path class="st0" d="M203.2,68.5c-3.2,0-6-.7-8.3-2-2.3-1.3-4-3.3-5.2-5.9-1.2-2.6-1.8-5.8-1.8-9.6v-21.8c0-.7.5-1.2,1.2-1.2h8.1c.7,0,1.2.5,1.2,1.2v20.8c0,3.2.7,5.6,2,7.2,1.3,1.6,3.4,2.4,6.2,2.4s3.4-.4,4.7-1.2c1.4-.8,2.5-2,3.3-3.5.8-1.5,1.2-3.4,1.2-5.6v-20c0-.7.5-1.2,1.2-1.2h8.2c.7,0,1.2.5,1.2,1.2v37.2c0,.7-.5,1.2-1.2,1.2h-7.1c-.6,0-1.1-.4-1.2-1l-.3-2.3c-.1-1-1.4-1.4-2.1-.6-1,1.1-2.1,2.1-3.5,2.9-2.2,1.3-4.9,2-8,2Z"/>
    <path class="st0" d="M250.1,67.5c-2.7,0-5.1-.4-7.2-1.3-2.1-.9-3.7-2.3-4.9-4.3-1.2-2-1.7-4.8-1.7-8.3v-15.6c0-.7-.5-1.2-1.2-1.2h-4.5c-.7,0-1.2-.5-1.2-1.2v-6.5c0-.7.5-1.2,1.2-1.2h4.6c.6,0,1.1-.5,1.2-1.1l.9-8.7c0-.6.6-1.1,1.2-1.1h7.2c.7,0,1.2.5,1.2,1.2v8.5c0,.7.5,1.2,1.2,1.2h8.1c.7,0,1.2.5,1.2,1.2v6.5c0,.7-.5,1.2-1.2,1.2h-8.1c-.7,0-1.2.5-1.2,1.2v15.8c0,1.8.4,3,1.2,3.7.8.7,2.1,1,4,1h3.9c.7,0,1.2.5,1.2,1.2v6.6c0,.7-.5,1.2-1.2,1.2h-5.9Z"/>
    <path class="st0" d="M267.3,22.6c-1.9,0-3.5-.6-4.7-1.7-1.2-1.1-1.8-2.5-1.8-4.3s.6-3.1,1.8-4.3c1.2-1.1,2.8-1.7,4.7-1.7s3.5.6,4.7,1.7c1.2,1.1,1.8,2.5,1.8,4.3s-.6,3.2-1.8,4.3c-1.2,1.1-2.8,1.7-4.7,1.7ZM262,66.3V29.2c0-.7.5-1.2,1.2-1.2h8.2c.7,0,1.2.5,1.2,1.2v37.2c0,.7-.5,1.2-1.2,1.2h-8.2c-.7,0-1.2-.5-1.2-1.2Z"/>
    <path class="st0" d="M278.8,66.3V12.2c0-.7.5-1.2,1.2-1.2h8.2c.7,0,1.2.5,1.2,1.2v54.1c0,.7-.5,1.2-1.2,1.2h-8.2c-.7,0-1.2-.5-1.2-1.2ZM304.3,67.1l-15.9-20.4c-.3-.4-.3-1.1,0-1.5l14.2-16.7c.2-.3.6-.4.9-.4h9.4c1,0,1.6,1.2.9,2l-15.8,18c-.7.8-2.1.3-2.1-.8v-2c0-1.1,1.3-1.6,2.1-.8l18.2,21.2c.7.8.1,2-.9,2h-10c-.4,0-.7-.2-.9-.5Z"/>
    <path class="st0" d="M320.1,83.6V29.2c0-.7.5-1.2,1.2-1.2h2.6c.6,0,1.1.5,1.2,1.1l.2,2.8c0,1,1.3,1.5,2,.7s.9-1,1.5-1.5c1.4-1.2,3-2.2,4.9-3,1.9-.8,4.1-1.1,6.5-1.1,3.9,0,7.3.9,10.2,2.7,2.8,1.8,5.1,4.3,6.6,7.4,1.6,3.1,2.4,6.7,2.4,10.7s-.8,7.5-2.4,10.6c-1.6,3.1-3.8,5.6-6.7,7.3-2.9,1.8-6.2,2.7-10.2,2.7s-6.2-.7-8.7-2.2-2.7-1.8-3.7-3-2.1-.3-2.1.8v19.5c0,.7-.5,1.2-1.2,1.2h-3.1c-.7,0-1.2-.5-1.2-1.2ZM339.8,63.7c2.7,0,5.1-.7,7.2-2,2.1-1.3,3.7-3.2,4.9-5.5,1.2-2.4,1.8-5.1,1.8-8.3s-.6-6.1-1.8-8.5c-1.2-2.4-2.8-4.3-4.9-5.6-2.1-1.3-4.5-2-7.2-2s-5.1.7-7.2,2c-2.1,1.3-3.7,3.2-4.9,5.6-1.2,2.4-1.8,5.2-1.8,8.5s.6,6,1.8,8.3c1.2,2.4,2.8,4.2,4.9,5.5,2.1,1.3,4.5,2,7.2,2Z"/>
    <path class="st0" d="M376.8,68.5c-3.2,0-5.8-.6-8-1.7-2.1-1.1-3.7-2.6-4.7-4.5-1-1.8-1.6-3.8-1.6-6s.7-5,2.1-6.9c1.4-1.9,3.3-3.3,5.9-4.2,2.5-.9,5.5-1.4,8.8-1.4h9.4c.7,0,1.2-.6,1.2-1.3-.1-2-.5-3.8-1.1-5.2-.8-1.8-1.9-3.1-3.4-4-1.5-.9-3.4-1.4-5.8-1.4s-5,.7-6.9,2c-1.7,1.2-2.8,2.9-3.4,5.2s-.6.9-1.2.9h-3.4c-.8,0-1.3-.7-1.2-1.5.5-2.2,1.4-4.1,2.7-5.6s3.6-3.3,6-4.3c2.4-1,4.8-1.5,7.4-1.5,3.7,0,6.7.7,9,2.1,2.3,1.4,4.1,3.3,5.2,5.7,1.1,2.4,1.7,5.2,1.7,8.4v23.1c0,.7-.5,1.2-1.2,1.2h-2.7c-.6,0-1.2-.5-1.2-1.1v-2.3c-.1-1.1-1.5-1.5-2.2-.7s0,0,0,0c-.8,1-1.8,1.9-2.8,2.6-1.1.7-2.3,1.3-3.7,1.8s-3,.7-4.9.7ZM377.4,63.7c1.9,0,3.7-.4,5.2-1.2,1.5-.8,2.8-1.9,3.9-3.2,1.1-1.4,1.9-2.8,2.5-4.5.6-1.6.9-3.3.9-5.1v-.3c0-.7-.5-1.2-1.2-1.2h-9.1c-2.8,0-5,.3-6.7,1-1.7.7-2.9,1.6-3.6,2.8-.8,1.2-1.1,2.5-1.1,4s.4,2.8,1.1,4c.7,1.1,1.8,2,3.1,2.7,1.4.7,3,1,5,1Z"/>
    <path class="st0" d="M401.4,66.3V29.2c0-.7.5-1.2,1.2-1.2h2.6c.6,0,1.2.5,1.2,1.1v2.7c.2,1.1,1.6,1.5,2.3.7s.9-1.1,1.5-1.5c1.4-1.3,3.1-2.2,5.1-2.9,1.7-.6,3.5-.9,5.6-1s1.2.5,1.2,1.2v3.3c0,.7-.5,1.2-1.2,1.2h-1c-1.7,0-3.3.2-4.9.7-1.6.4-3,1.2-4.2,2.2-1.2,1-2.2,2.5-2.9,4.2-.7,1.8-1.1,4-1.1,6.7v19.8c0,.7-.5,1.2-1.2,1.2h-3.1c-.7,0-1.2-.5-1.2-1.2Z"/>
    <path class="st0" d="M440.2,67.5c-2.2,0-4.2-.4-5.8-1.1-1.6-.7-2.9-1.9-3.7-3.6-.9-1.7-1.3-3.9-1.3-6.7v-22.3c0-.7-.5-1.2-1.2-1.2h-4.5c-.7,0-1.2-.5-1.2-1.2v-2.3c0-.7.5-1.2,1.2-1.2h4.6c.6,0,1.1-.5,1.2-1.1l.6-7.1c0-.6.6-1.1,1.2-1.1h2.4c.7,0,1.2.5,1.2,1.2v6.9c0,.7.5,1.2,1.2,1.2h9.4c.7,0,1.2.5,1.2,1.2v2.3c0,.7-.5,1.2-1.2,1.2h-9.4c-.7,0-1.2.5-1.2,1.2v22.3c0,2.6.5,4.4,1.6,5.3,1.1.9,2.9,1.4,5.5,1.4h2.9c.7,0,1.2.5,1.2,1.2v2.3c0,.7-.5,1.2-1.2,1.2h-4.7Z"/>
    <path class="st0" d="M450.8,66.3V29.2c0-.7.5-1.2,1.2-1.2h2.6c.6,0,1.2.5,1.2,1.1v2.3c.1,1.1,1.5,1.5,2.2.7,1-1.2,2.2-2.2,3.5-3,2.4-1.4,5-2.1,8-2.1s5.7.6,7.9,1.8c2.2,1.2,4,3,5.3,5.5,1.3,2.4,1.9,5.6,1.9,9.4v22.7c0,.7-.5,1.2-1.2,1.2h-3.1c-.7,0-1.2-.5-1.2-1.2v-22c0-4.2-.9-7.4-2.7-9.4-1.8-2-4.4-3.1-7.8-3.1s-4.4.6-6.2,1.7c-1.9,1.1-3.3,2.7-4.4,4.9-1,2.1-1.6,4.8-1.6,8v20c0,.7-.5,1.2-1.2,1.2h-3.1c-.7,0-1.2-.5-1.2-1.2Z"/>
    <path class="st0" d="M507.4,68.5c-3.7,0-7-.9-9.7-2.6-2.8-1.7-5-4.1-6.5-7.3-1.6-3.1-2.4-6.8-2.4-10.9s.8-7.8,2.4-10.9c1.6-3.1,3.8-5.5,6.6-7.2,2.8-1.7,6.1-2.5,9.8-2.5s7.1.9,9.8,2.6c2.6,1.7,4.7,4,6,6.7,1.4,2.8,2.1,5.8,2.1,9.1v1.6c0,.2,0,.5,0,.8,0,.6-.6,1.1-1.2,1.1h-30.1c-.7,0-1.2-.5-1.2-1.2v-2.3c0-.7.5-1.2,1.2-1.2h24.8c.7,0,1.3-.6,1.2-1.3-.4-3.4-1.6-6.1-3.7-8-2.4-2.2-5.4-3.3-9-3.3s-4.5.5-6.5,1.6c-2,1.1-3.6,2.7-4.9,4.7-1.2,2.1-1.8,4.7-1.8,7.8v2c0,3.6.6,6.5,1.9,8.9,1.3,2.4,2.9,4.1,4.9,5.3,2,1.2,4.2,1.7,6.5,1.7s5.4-.7,7.4-2c1.7-1.2,3-2.8,3.9-4.8s.6-.8,1.1-.8h2.9c.8,0,1.4.8,1.1,1.6-.6,1.7-1.5,3.3-2.7,4.7-1.5,1.9-3.4,3.3-5.7,4.4-2.3,1-5,1.6-8,1.6Z"/>
    <path class="st0" d="M530,66.3V29.2c0-.7.5-1.2,1.2-1.2h2.6c.6,0,1.2.5,1.2,1.1v2.7c.2,1.1,1.6,1.5,2.3.7s.9-1.1,1.5-1.5c1.4-1.3,3.1-2.2,5.1-2.9,1.7-.6,3.5-.9,5.6-1s1.2.5,1.2,1.2v3.3c0,.7-.5,1.2-1.2,1.2h-1c-1.7,0-3.3.2-4.9.7-1.6.4-3,1.2-4.2,2.2-1.2,1-2.2,2.5-2.9,4.2-.7,1.8-1.1,4-1.1,6.7v19.8c0,.7-.5,1.2-1.2,1.2h-3.1c-.7,0-1.2-.5-1.2-1.2Z"/>
  </g>
</svg>