<?xml version="1.0" encoding="UTF-8"?>
<svg id="Lager_1" xmlns="http://www.w3.org/2000/svg" version="1.1" viewBox="0 0 525.3 88.9">
  <!-- Generator: Adobe Illustrator 29.1.0, SVG Export Plug-In . SVG Version: 2.1.0 Build 142)  -->
  <defs>
    <style>
      .st0 {
        fill: #1e4841;
      }
    </style>
  </defs>
  <g>
    <path class="st0" d="M98.6,52.9h6.6c.6,0,1.1.4,1.2,1,.4,1.6,1.3,2.8,2.7,3.9,1.7,1.2,4,1.9,6.6,1.9s4.8-.5,6.5-1.4c1.7-1,2.5-2.2,2.5-3.8s-.7-1.8-2.2-2.6c-1.5-.7-4-1.4-7.6-2.1-5.9-1.4-9.9-2.9-12-4.5-1.7-1.3-2.8-3.2-3.1-5.5-.6-4.4,1.3-8.8,4.9-11.3s6.6-3,11.1-3,7.3,1,10.4,2.9c2.6,1.6,4.5,3.6,5.7,6.1s0,1.6-.9,1.8l-6.4,1.6c-.5.1-1.1,0-1.4-.6-.6-1-1.5-1.8-2.7-2.5-1.5-.8-3.1-1.3-4.8-1.3s-3.5.4-4.7,1.1c-1.2.7-1.8,1.7-1.8,2.8s.6,1.6,1.7,2.2c1.1.6,3.1,1.2,5.9,1.9,6.7,1.4,11.3,3,13.8,4.9,2.5,1.9,3.8,4.6,3.8,8.2s-1.7,7.1-5.1,9.6c-3.4,2.4-7.9,3.6-13.5,3.6s-9.8-1.4-13.2-4.1c-3-2.4-4.8-5.5-5.2-9.2s.5-1.4,1.3-1.4Z"/>
    <path class="st0" d="M133.8,33.2v-5.5c0-.7.6-1.3,1.3-1.3h3.9c.7,0,1.3-.6,1.3-1.3v-12.3c0-.7.6-1.3,1.3-1.3h7.1c.7,0,1.3.6,1.3,1.3v12.3c0,.7.6,1.3,1.3,1.3h7.5c.7,0,1.3.6,1.3,1.3v5.5c0,.7-.6,1.3-1.3,1.3h-7.5c-.7,0-1.3.6-1.3,1.3v20.5c0,1,.3,1.8,1,2.4.7.6,1.5.9,2.5.9h5.7c.7,0,1.3.6,1.3,1.3v4.7c0,.6-.4,1-.9,1.2-1.6.5-3.6.8-5.9.8-4,0-7.2-1-9.6-3.1-2.4-2.1-3.7-4.8-3.7-8.2v-20.5c0-.7-.6-1.3-1.3-1.3h-3.9c-.7,0-1.3-.6-1.3-1.3Z"/>
    <path class="st0" d="M165.7,61.8c-4-3.9-6-9-6-15.3s2-11.4,6-15.3c4-3.9,9.2-5.8,15.7-5.8s11.8,1.9,15.7,5.8c4,3.9,6,9,6,15.3s-2,11.4-6,15.3c-4,3.9-9.2,5.8-15.7,5.8s-11.8-1.9-15.7-5.8ZM172.7,37.3c-2.2,2.3-3.3,5.4-3.3,9.2s1.1,6.9,3.3,9.2c2.2,2.3,5.1,3.5,8.8,3.5s6.6-1.2,8.8-3.5c2.2-2.3,3.3-5.4,3.3-9.2s-1.1-6.9-3.3-9.2c-2.2-2.3-5.1-3.5-8.8-3.5s-6.5,1.2-8.8,3.5Z"/>
    <path class="st0" d="M204.9,65.2V27.7c0-.7.6-1.3,1.3-1.3h7.1c.7,0,1.3.6,1.3,1.3h0c0,1.1,1.3,1.7,2.1.9s1.3-1,2.1-1.5c1.8-1,3.6-1.5,5.4-1.5s2.3.1,3.3.4.9.7.9,1.2v5.2c0,.7-.6,1.3-1.3,1.3h-2c-3.2,0-5.8.8-7.7,2.5-1.9,1.7-2.9,3.8-2.9,6.5v22.4c0,.7-.6,1.3-1.3,1.3h-7.1c-.7,0-1.3-.6-1.3-1.3Z"/>
    <path class="st0" d="M231.5,61.8c-4-3.9-6-9-6-15.3s2-11.4,6-15.3c4-3.9,9.2-5.8,15.7-5.8s11.8,1.9,15.7,5.8c4,3.9,6,9,6,15.3v1.3c0,.3-.1.6-.4.9h0c-.2.3-.6.5-.9.5h-30.7c-.8,0-1.4.8-1.2,1.6.6,2.4,1.8,4.4,3.6,6s5.5,3.1,9.2,2.8,2.5-.4,3.7-.9c2.6-1.2,4.5-2.9,5.7-5s.7-.7,1.1-.7h7.2c.9,0,1.5.9,1.2,1.7-1.4,3.6-3.8,6.6-7.1,8.9-3.8,2.7-8.2,4.1-13,4.1s-11.8-1.9-15.7-5.8ZM237.9,41.1h18.6c1,0,1.6-1.1,1.1-1.9-.9-1.6-2-2.8-3.4-3.8-2-1.4-4.3-2-7-2s-5,.7-7,2c-1.4,1-2.6,2.3-3.4,3.8s.1,1.9,1.1,1.9Z"/>
    <path class="st0" d="M272.5,80.1V27.7c0-.7.6-1.3,1.3-1.3h4c.7,0,1.3.6,1.3,1.3v2.1c0,1.1,1.3,1.7,2.1.9,1.2-1.2,2.6-2.2,4.2-3,2.7-1.4,5.4-2.1,8.3-2.1,6,0,10.8,1.9,14.4,5.7,3.7,3.8,5.5,8.8,5.5,15.1s-1.8,11.2-5.5,15.1c-3.7,3.8-8.5,5.7-14.4,5.7s-5.6-.7-8.3-2.1-3-1.8-4.2-3-2.1-.2-2.1.9v16.9c0,.7-.6,1.3-1.3,1.3h-4c-.7,0-1.3-.6-1.3-1.3ZM282.9,35.4c-2.6,2.8-3.8,6.5-3.8,11s1.3,8.2,3.8,11c2.6,2.8,5.9,4.2,10.1,4.2s7.6-1.4,10.1-4.2c2.6-2.8,3.9-6.5,3.9-11s-1.3-8.2-3.9-11c-2.6-2.8-6-4.2-10.1-4.2s-7.6,1.4-10.1,4.2Z"/>
    <path class="st0" d="M321.3,61.5c-3.6-3.8-5.4-8.8-5.4-15.1s1.8-11.2,5.4-15.1c3.6-3.8,8.3-5.7,14.2-5.7s5.4.7,8,2.1c1.6.8,2.9,1.8,4.1,2.9s2.1.2,2.1-.9v-2c0-.7.6-1.3,1.3-1.3h4c.7,0,1.3.6,1.3,1.3v37.4c0,.7-.6,1.3-1.3,1.3h-4c-.7,0-1.3-.6-1.3-1.3v-2c0-1.1-1.3-1.7-2.1-.9-1.2,1.1-2.6,2.1-4.1,2.9-2.6,1.4-5.3,2.1-8,2.1-5.9,0-10.6-1.9-14.2-5.7ZM326.2,35.4c-2.5,2.8-3.8,6.5-3.8,11s1.3,8.2,3.8,11c2.5,2.8,5.8,4.2,9.9,4.2s7.4-1.4,9.8-4.2c2.5-2.8,3.7-6.5,3.7-11s-1.2-8.2-3.7-11c-2.5-2.8-5.8-4.2-9.8-4.2s-7.4,1.4-9.9,4.2Z"/>
    <path class="st0" d="M362.4,65.2V27.7c0-.7.6-1.3,1.3-1.3h4c.7,0,1.3.6,1.3,1.3v.9c0,1.1,1.3,1.7,2.1.9,2.7-2.6,5.8-3.9,9.3-3.9s1.8.1,2.5.4.8.7.8,1.2v2.7c0,.7-.6,1.3-1.3,1.3h-1.5c-3.6,0-6.5,1.1-8.7,3.3-2.2,2.2-3.3,5-3.3,8.6v22.1c0,.7-.6,1.3-1.3,1.3h-4c-.7,0-1.3-.6-1.3-1.3Z"/>
    <path class="st0" d="M385.2,30.8v-3c0-.7.6-1.3,1.3-1.3h3.7c.7,0,1.3-.6,1.3-1.3v-12.3c0-.7.6-1.3,1.3-1.3h4c.7,0,1.3.6,1.3,1.3v12.3c0,.7.6,1.3,1.3,1.3h9c.7,0,1.3.6,1.3,1.3v3c0,.7-.6,1.3-1.3,1.3h-9c-.7,0-1.3.6-1.3,1.3v22.9c0,1.6.5,3,1.4,3.9.9,1,2.1,1.5,3.7,1.5h5.6c.7,0,1.3.6,1.3,1.3v2.5c0,.6-.4,1.1-1,1.3-1.9.4-3.7.6-5.6.6-3.6,0-6.4-1-8.6-3-2.2-2-3.3-4.7-3.3-8v-22.9c0-.7-.6-1.3-1.3-1.3h-3.7c-.7,0-1.3-.6-1.3-1.3Z"/>
    <path class="st0" d="M414,65.2V27.7c0-.7.6-1.3,1.3-1.3h4c.7,0,1.3.6,1.3,1.3v.7c0,1.1,1.2,1.7,2.1,1s2.2-1.6,3.5-2.2c2.3-1.1,4.6-1.6,6.9-1.6,5,0,9.1,1.5,12.2,4.4,3.1,2.9,4.6,6.8,4.6,11.6v23.5c0,.7-.6,1.3-1.3,1.3h-4c-.7,0-1.3-.6-1.3-1.3v-22.4c0-3.4-1-6.2-3.1-8.3-2.1-2.1-4.8-3.2-8.2-3.2s-6.1,1.1-8.2,3.2c-2.1,2.1-3.1,4.9-3.1,8.3v22.4c0,.7-.6,1.3-1.3,1.3h-4c-.7,0-1.3-.6-1.3-1.3Z"/>
    <path class="st0" d="M458.7,61.5c-3.7-3.8-5.5-8.8-5.5-15.1s1.8-11.2,5.5-15.1c3.7-3.8,8.5-5.7,14.6-5.7s10.9,2,14.6,5.9c3.7,3.9,5.5,9.1,5.5,15.5l-.7.7h-31.6c-.8,0-1.4.7-1.3,1.4.4,3.5,1.7,6.4,3.9,8.7,2.5,2.6,5.7,3.8,9.6,3.8s5.6-.8,7.9-2.4c2.1-1.4,3.6-3.3,4.5-5.5s.7-.8,1.2-.8h3.7c.9,0,1.5.9,1.2,1.7-1.4,3.5-3.6,6.4-6.6,8.7-3.5,2.6-7.5,3.9-12,3.9s-10.9-1.9-14.6-5.7ZM461.6,42.1h23.2c.9,0,1.5-.8,1.2-1.7-.8-2.7-2.2-4.8-4.2-6.4-2.3-1.9-5.2-2.8-8.7-2.8s-6.4.9-8.7,2.8c-1.9,1.6-3.3,3.7-4.2,6.4s.4,1.7,1.2,1.7Z"/>
    <path class="st0" d="M497.8,65.2V27.7c0-.7.6-1.3,1.3-1.3h4c.7,0,1.3.6,1.3,1.3v.9c0,1.1,1.3,1.7,2.1.9,2.7-2.6,5.8-3.9,9.3-3.9s1.8.1,2.5.4.8.7.8,1.2v2.7c0,.7-.6,1.3-1.3,1.3h-1.5c-3.6,0-6.5,1.1-8.7,3.3-2.2,2.2-3.3,5-3.3,8.6v22.1c0,.7-.6,1.3-1.3,1.3h-4c-.7,0-1.3-.6-1.3-1.3Z"/>
  </g>
  <g>
    <path class="st0" d="M60.6,53.7h0s0-10.1,0-10.1c-1.3.2-2.6.2-3.8-.3-1.2-.5-2.3-1.2-3-2.2-1.3,1.6-3.3,2.6-5.5,2.6s-4.2-1-5.5-2.6c-.8,1-1.8,1.7-3.1,2.2-1.2.5-2.6.5-3.8.3v10.1c-.1,0-.1,0-.1,0,0,.8.3,1.5.8,2.1.6.6,1.3.9,2.1.9h3.1v-5.3c0-2.3,1.8-4.1,4.1-4.1h4.7c2.3,0,4.1,1.8,4.1,4.1v5.3h3.1c.8,0,1.5-.3,2.1-.9.6-.6.9-1.3.8-2.1Z"/>
    <path class="st0" d="M62.7,35.6l-1.9-5.2s0,0,0-.1c-.1-.4-.5-.7-.9-.7h-23.4c-.4,0-.8.3-.9.7,0,0,0,0,0,.1l-1.9,5.2c-.4,1.5.2,3.1,1.5,4,1,.7,2.2.8,3.3.4,1.1-.4,2-1.3,2.3-2.5l.3-1.3v-1.2c0-1,.8-1.8,1.8-1.7,1,0,1.8.8,1.7,1.8v1.3c0,2,1.6,3.7,3.6,3.7s3.7-1.6,3.7-3.7v-1.3c0-1,.8-1.8,1.7-1.8,1,0,1.8.8,1.8,1.7v1.1s.3,1.3.3,1.3c.3,1.2,1.1,2.1,2.3,2.5,1.1.4,2.4.3,3.3-.4,1.3-.9,1.9-2.5,1.5-4Z"/>
    <path class="st0" d="M43.8,6.8C22.1,16.1,7.2,16.3,7.2,38.9s20,32.4,40.9,40.9c23.2,9.4,40.9-18.3,40.9-40.9S64.5-2,43.8,6.8ZM64.1,53.6h0s0,0,0,0h0s0,0,0,0c0,1.7-.7,3.4-1.9,4.6-1.2,1.2-2.9,1.9-4.6,1.9h-19.1c-1.7,0-3.4-.7-4.6-1.9-1.2-1.2-1.9-2.9-1.9-4.6h0v-11.8c-1.8-1.8-2.7-4.6-2-7.2,0,0,0-.1,0-.2l2-5.3h0c.6-1.9,2.3-3.1,4.3-3.1h23.4c2,0,3.7,1.3,4.3,3.1h0s2,5.3,2,5.3c0,0,0,.1,0,.2.7,2.6-.1,5.4-2.1,7.2v11.8Z"/>
    <path class="st0" d="M51.1,56.7v-5.3c0-.3-.3-.6-.6-.6h-4.7c-.3,0-.6.3-.6.6v5.3h5.9Z"/>
  </g>
</svg>