<?xml version="1.0" encoding="UTF-8"?>
<svg id="Lager_1" xmlns="http://www.w3.org/2000/svg" version="1.1" viewBox="0 0 458.1 77">
  <!-- Generator: Adobe Illustrator 29.1.0, SVG Export Plug-In . SVG Version: 2.1.0 Build 142)  -->
  <defs>
    <style>
      .st0 {
        fill: #1e4841;
      }
    </style>
  </defs>
  <path class="st0" d="M19.3,60.1c-2.9,0-5.6-.4-8.1-1.3s-4.7-2.1-6.7-3.8C2.6,53.4,1.1,51.4,0,49l10.2-4.7c.9,1.4,2.1,2.7,3.7,3.7,1.6,1.1,3.4,1.6,5.4,1.6s3.5-.3,4.6-.9c1.1-.6,1.6-1.4,1.6-2.5s-.4-1.9-1.3-2.4c-.9-.5-2.1-.9-3.6-1.3l-4.1-1.1c-4.3-1.1-7.7-3-10.2-5.4-2.5-2.5-3.7-5.4-3.7-8.6,0-4.6,1.5-8.2,4.5-10.7,3-2.5,7.2-3.8,12.6-3.8s5.4.4,7.9,1.3c2.4.8,4.5,2,6.3,3.5,1.7,1.5,2.9,3.2,3.6,5.2l-9.8,4.5c-.4-1.2-1.4-2.2-3.1-2.9-1.6-.7-3.2-1.1-4.9-1.1s-2.9.3-3.7,1c-.9.7-1.3,1.6-1.3,2.8s.4,1.4,1.3,1.9c.8.5,2,.9,3.6,1.3l5.9,1.4c2.9.7,5.3,1.9,7.1,3.5,1.8,1.6,3.1,3.4,3.9,5.3.8,2,1.2,3.9,1.2,5.7,0,2.7-.8,5.1-2.4,7.2-1.6,2.1-3.8,3.7-6.5,4.8-2.7,1.1-5.8,1.7-9.3,1.7Z"/>
  <path class="st0" d="M36.9,24.1v-10.1h30.4v10.1h-30.4ZM59.3,60.1c-5,0-8.7-1.2-11.3-3.7-2.6-2.5-3.8-6-3.8-10.5V0h11.9v43.3c0,1.9.4,3.4,1.3,4.4.8,1,2.1,1.5,3.7,1.5s1.3-.1,2-.4c.7-.3,1.5-.7,2.2-1.2l4.1,8.9c-1.4,1.1-3,2-4.8,2.7-1.8.7-3.5,1-5.3,1Z"/>
  <path class="st0" d="M93.7,60.1c-4.6,0-8.7-1-12.2-3-3.5-2-6.3-4.8-8.3-8.3-2-3.5-3-7.6-3-12.2s1-8.7,3-12.2c2-3.5,4.7-6.3,8.3-8.3,3.5-2,7.6-3,12.1-3s8.7,1,12.2,3c3.5,2,6.3,4.8,8.3,8.3,2,3.5,3,7.6,3,12.2s-1,8.7-3,12.2c-2,3.5-4.7,6.3-8.2,8.3-3.5,2-7.5,3-12.1,3ZM93.7,49.1c2.2,0,4.2-.5,5.8-1.6,1.6-1.1,3-2.6,3.9-4.5,1-1.9,1.4-4.1,1.4-6.5s-.5-4.6-1.4-6.5c-1-1.9-2.3-3.4-4-4.5s-3.6-1.6-5.8-1.6-4.2.5-5.9,1.6-3,2.6-4,4.5c-1,1.9-1.4,4.1-1.4,6.5s.5,4.6,1.4,6.5c1,1.9,2.3,3.4,4,4.5,1.7,1.1,3.7,1.6,5.9,1.6Z"/>
  <path class="st0" d="M121.2,59V14h11.9v45h-11.9ZM129.6,35.4c0-4.9.9-8.9,2.8-12.1,1.9-3.2,4.3-5.5,7.3-7.1,3-1.6,6.1-2.3,9.3-2.3v11.5c-2.8,0-5.4.3-7.8,1-2.4.7-4.4,1.7-5.9,3.2-1.5,1.5-2.2,3.4-2.2,5.8h-3.5Z"/>
  <path class="st0" d="M172.1,60.1c-4.4,0-8.4-1-11.8-3-3.4-2-6.1-4.8-8.1-8.3-2-3.5-2.9-7.6-2.9-12.2s1-8.7,3-12.2c2-3.5,4.8-6.3,8.3-8.3,3.5-2,7.5-3,12.1-3s7.6,1,10.9,3.1c3.3,2.1,6,5.1,8,9.1,2,4,3,8.8,3,14.5h-34.1l1.1-1.1c0,2.2.6,4.2,1.7,5.8,1.1,1.7,2.5,2.9,4.3,3.8,1.8.9,3.7,1.3,5.7,1.3s4.5-.5,6-1.6c1.6-1,2.8-2.4,3.6-4.1l10.6,4.1c-1.3,2.5-2.9,4.7-4.9,6.5-2,1.8-4.4,3.2-7.2,4.2-2.8,1-5.9,1.4-9.5,1.4ZM162.3,31.9l-1.1-1.1h21.7l-1,1.1c0-2.2-.5-3.9-1.5-5.2-1-1.3-2.3-2.2-3.7-2.8-1.5-.6-2.9-.9-4.3-.9s-2.9.3-4.4.9c-1.6.6-2.9,1.5-4,2.8-1.1,1.3-1.7,3-1.7,5.2Z"/>
  <path class="st0" d="M200.1,77V14h5l.4,8.3v54.7h-5.4ZM221.3,60.1c-3.8,0-7.1-1-10.1-3-2.9-2-5.2-4.8-6.9-8.4-1.7-3.6-2.5-7.6-2.5-12.2s.8-8.7,2.5-12.2c1.7-3.5,3.9-6.3,6.9-8.3,2.9-2,6.3-3,10.1-3s7.5,1,10.5,3c3.1,2,5.5,4.8,7.2,8.3,1.7,3.5,2.6,7.6,2.6,12.2s-.9,8.6-2.6,12.2c-1.7,3.6-4.1,6.4-7.2,8.4-3.1,2-6.6,3-10.5,3ZM220.2,55.3c3.1,0,5.9-.8,8.3-2.4,2.4-1.6,4.3-3.8,5.7-6.6,1.4-2.8,2.1-6.1,2.1-9.7s-.7-6.9-2-9.7c-1.4-2.8-3.2-5-5.6-6.6-2.4-1.6-5.2-2.4-8.3-2.4s-5.4.8-7.7,2.4c-2.2,1.6-4,3.8-5.3,6.6-1.3,2.8-1.9,6.1-1.9,9.7s.6,6.9,1.9,9.7c1.3,2.8,3,5,5.2,6.6,2.2,1.6,4.8,2.4,7.7,2.4Z"/>
  <path class="st0" d="M263,60.1c-5.3,0-9.4-1.2-12.4-3.6s-4.5-5.8-4.5-10.1,1.5-7.9,4.5-10.4c3-2.5,7.1-3.7,12.4-3.7h13.5v5h-12.8c-4.3,0-7.4.8-9.3,2.4-1.9,1.6-2.8,3.8-2.8,6.7s1,4.9,2.9,6.5c1.9,1.6,4.7,2.3,8.1,2.3s5.4-.6,7.4-1.8c2.1-1.2,3.6-2.9,4.7-5.2,1.1-2.3,1.6-5.1,1.6-8.5h3.2c0,6.1-1.5,11-4.4,14.8-2.9,3.7-7,5.6-12.2,5.6ZM276.8,59l-.5-6.8v-17.4c0-3.8-.4-7-1.3-9.5-.9-2.5-2.2-4.4-4.1-5.6-1.8-1.3-4.2-1.9-7.2-1.9s-5,.5-6.8,1.6c-1.8,1.1-3.3,2.8-4.5,5l-4.9-2.2c1.3-2.2,2.7-3.9,4.3-5.3,1.6-1.4,3.4-2.4,5.4-3.1,2-.7,4.2-1,6.6-1,4,0,7.3.8,10,2.4,2.6,1.6,4.6,4,5.9,7.3,1.3,3.2,2,7.3,2,12.2v24.1h-5Z"/>
  <path class="st0" d="M290.3,59V14h5.4v45h-5.4ZM292.6,34.4c0-4.9.9-8.8,2.7-11.8,1.8-3,4.2-5.2,7.1-6.6,2.9-1.4,6-2.1,9.2-2.1v5c-2.6,0-5.2.5-7.6,1.4-2.4.9-4.4,2.5-6,4.7-1.6,2.2-2.3,5.2-2.3,9l-3.2.5Z"/>
  <path class="st0" d="M310.8,19v-5h27.7v5h-27.7ZM332,60.1c-4.1,0-7.4-1.1-9.7-3.3-2.3-2.2-3.5-5.3-3.5-9.3V0h5.4v47.5c0,2.4.7,4.3,2.1,5.6,1.4,1.4,3.3,2,5.8,2s1.4-.1,2.1-.3c.7-.2,1.7-.8,3-1.7l2.2,4.7c-1.6,1-3,1.6-4,1.8s-2.2.4-3.3.4Z"/>
  <path class="st0" d="M345.2,59V14h5l.4,8.3v36.7h-5.4ZM377.5,36c0-5-.6-8.8-1.8-11.3-1.2-2.6-2.8-4.3-4.8-5.3-2-.9-4.3-1.4-6.8-1.4-4.3,0-7.6,1.6-10,4.7-2.4,3.1-3.6,7.5-3.6,13.2h-3.3c0-4.8.7-8.9,2.1-12.3,1.4-3.4,3.4-6,6.1-7.9,2.7-1.8,5.9-2.7,9.8-2.7s6.6.7,9.2,2.1c2.7,1.4,4.8,3.6,6.3,6.7,1.5,3.1,2.3,7.1,2.2,12.1v2.1h-5.4ZM377.5,59v-23h5.4v23h-5.4Z"/>
  <path class="st0" d="M410.9,60.1c-4.3,0-8.1-1-11.5-3-3.3-2-5.9-4.8-7.8-8.3-1.9-3.5-2.8-7.6-2.8-12.2s.9-8.7,2.8-12.2c1.9-3.5,4.4-6.3,7.7-8.3,3.3-2,7-3,11.2-3s7.9,1,10.8,3.1c3,2.1,5.2,4.9,6.8,8.6,1.6,3.6,2.3,7.8,2.3,12.6h-38.4l2.1-1.7c0,4.1.7,7.7,2.1,10.6,1.4,2.9,3.3,5.2,5.9,6.8,2.5,1.6,5.5,2.3,8.9,2.3s6.4-.9,8.9-2.6c2.4-1.7,4.3-3.9,5.7-6.6l4.5,2.8c-1.1,2.2-2.6,4.2-4.5,5.9-1.8,1.7-4,3-6.4,4-2.5,1-5.2,1.4-8.2,1.4ZM394.6,33.8l-2.2-1.6h34.7l-2.2,1.7c0-3.2-.6-6-1.8-8.4-1.2-2.4-2.8-4.3-4.9-5.6-2.1-1.4-4.6-2-7.6-2s-5.5.7-8,2c-2.4,1.4-4.4,3.2-5.8,5.6-1.4,2.4-2.2,5.1-2.2,8.3Z"/>
  <path class="st0" d="M436.8,59V14h5.4v45h-5.4ZM439,34.4c0-4.9.9-8.8,2.7-11.8,1.8-3,4.2-5.2,7.1-6.6,2.9-1.4,6-2.1,9.2-2.1v5c-2.6,0-5.2.5-7.6,1.4-2.4.9-4.4,2.5-6,4.7-1.6,2.2-2.3,5.2-2.3,9l-3.2.5Z"/>
</svg>