<?xml version="1.0" encoding="UTF-8"?>
<svg id="Lager_1" xmlns="http://www.w3.org/2000/svg" version="1.1" viewBox="0 0 424 78.2">
  <!-- Generator: Adobe Illustrator 29.1.0, SVG Export Plug-In . SVG Version: 2.1.0 Build 142)  -->
  <defs>
    <style>
      .st0 {
        fill: none;
        stroke: #ec691d;
        stroke-linecap: round;
        stroke-linejoin: round;
        stroke-width: 4px;
      }

      .st1 {
        fill: #1d1d1b;
      }
    </style>
  </defs>
  <g>
    <path class="st1" d="M77.7,59.3c-2.2,0-4.3-.3-6.3-1-2-.7-3.7-1.7-5.2-2.9-1.5-1.3-2.7-2.9-3.5-4.7l7.9-3.6c.7,1.1,1.7,2.1,2.9,2.9,1.2.8,2.6,1.2,4.2,1.2s2.7-.2,3.6-.7c.8-.4,1.3-1.1,1.3-1.9s-.3-1.5-1-1.9c-.7-.4-1.6-.7-2.8-1l-3.2-.8c-3.4-.9-6-2.3-7.9-4.2-1.9-1.9-2.9-4.2-2.9-6.7,0-3.6,1.2-6.4,3.5-8.3s5.6-2.9,9.8-2.9,4.2.3,6.1,1c1.9.7,3.5,1.6,4.9,2.7,1.4,1.2,2.3,2.5,2.8,4.1l-7.6,3.5c-.3-.9-1.1-1.7-2.4-2.3-1.3-.6-2.5-.9-3.8-.9s-2.2.3-2.9.8c-.7.5-1,1.3-1,2.2s.3,1.1,1,1.5c.7.4,1.6.7,2.8,1l4.5,1.1c2.3.6,4.1,1.5,5.5,2.7,1.4,1.2,2.4,2.6,3,4.1.6,1.5.9,3,.9,4.4,0,2.1-.6,4-1.9,5.6-1.2,1.6-2.9,2.9-5,3.7-2.1.9-4.5,1.3-7.2,1.3Z"/>
    <path class="st1" d="M91.4,31.3v-7.8h23.7v7.8h-23.7ZM108.8,59.3c-3.9,0-6.8-1-8.8-2.9-2-1.9-3-4.6-3-8.2V12.5h9.2v33.7c0,1.5.3,2.6,1,3.4.7.8,1.6,1.2,2.9,1.2s1-.1,1.5-.3c.6-.2,1.1-.5,1.8-.9l3.2,6.9c-1.1.8-2.4,1.5-3.7,2.1-1.4.5-2.7.8-4.1.8Z"/>
    <path class="st1" d="M135.6,59.3c-3.6,0-6.8-.8-9.5-2.3-2.8-1.6-4.9-3.7-6.5-6.5-1.6-2.8-2.3-5.9-2.3-9.5s.8-6.8,2.3-9.5c1.5-2.8,3.7-4.9,6.4-6.5,2.8-1.6,5.9-2.3,9.4-2.3s6.8.8,9.5,2.3c2.8,1.6,4.9,3.7,6.4,6.5,1.5,2.8,2.3,5.9,2.3,9.5s-.8,6.8-2.3,9.5c-1.5,2.8-3.7,4.9-6.4,6.5s-5.9,2.3-9.4,2.3ZM135.6,50.7c1.7,0,3.2-.4,4.5-1.3,1.3-.8,2.3-2,3-3.5.7-1.5,1.1-3.2,1.1-5.1s-.4-3.6-1.1-5.1c-.7-1.5-1.8-2.6-3.1-3.5-1.3-.8-2.8-1.3-4.5-1.3s-3.3.4-4.6,1.3-2.4,2-3.1,3.5c-.7,1.5-1.1,3.2-1.1,5.1s.4,3.6,1.1,5.1c.7,1.5,1.8,2.6,3.1,3.5,1.4.8,2.9,1.3,4.6,1.3Z"/>
    <path class="st1" d="M157,58.4V23.4h9.2v35h-9.2ZM163.5,40c0-3.8.7-6.9,2.2-9.4,1.5-2.5,3.4-4.3,5.7-5.5,2.3-1.2,4.7-1.8,7.2-1.8v9c-2.1,0-4.2.3-6.1.8-1.9.5-3.4,1.4-4.6,2.5-1.2,1.2-1.8,2.7-1.8,4.5h-2.7Z"/>
    <path class="st1" d="M196.5,59.3c-3.5,0-6.5-.8-9.2-2.3-2.7-1.6-4.7-3.7-6.3-6.5-1.5-2.8-2.3-5.9-2.3-9.5s.8-6.8,2.3-9.5c1.6-2.8,3.7-4.9,6.4-6.5,2.7-1.6,5.9-2.3,9.4-2.3s5.9.8,8.5,2.4c2.6,1.6,4.7,4,6.2,7.1,1.6,3.1,2.3,6.9,2.3,11.3h-26.5l.8-.8c0,1.7.4,3.2,1.3,4.5.9,1.3,2,2.3,3.4,2.9,1.4.7,2.9,1,4.4,1s3.5-.4,4.7-1.2c1.2-.8,2.1-1.9,2.8-3.2l8.3,3.2c-1,2-2.3,3.7-3.8,5.1-1.6,1.4-3.4,2.5-5.6,3.3-2.1.7-4.6,1.1-7.4,1.1ZM188.9,37.3l-.8-.8h16.9l-.8.8c0-1.7-.4-3-1.2-4-.8-1-1.8-1.7-2.9-2.2-1.1-.5-2.3-.7-3.3-.7s-2.2.2-3.4.7c-1.2.5-2.3,1.2-3.1,2.2-.9,1-1.3,2.3-1.3,4Z"/>
    <path class="st1" d="M218.3,72.4V23.4h3.9l.3,6.4v42.6h-4.2ZM234.8,59.3c-2.9,0-5.6-.8-7.8-2.3-2.3-1.6-4.1-3.7-5.4-6.5-1.3-2.8-1.9-5.9-1.9-9.5s.6-6.8,1.9-9.5c1.3-2.8,3.1-4.9,5.4-6.5,2.3-1.6,4.9-2.3,7.8-2.3s5.8.8,8.2,2.3c2.4,1.6,4.2,3.7,5.6,6.5,1.4,2.8,2,5.9,2,9.5s-.7,6.7-2,9.5c-1.4,2.8-3.2,4.9-5.6,6.5-2.4,1.6-5.1,2.3-8.2,2.3ZM234,55.5c2.4,0,4.6-.6,6.4-1.9,1.9-1.2,3.3-3,4.4-5.1,1.1-2.2,1.6-4.7,1.6-7.6s-.5-5.4-1.6-7.6c-1-2.2-2.5-3.9-4.4-5.1-1.9-1.2-4-1.9-6.4-1.9s-4.2.6-6,1.9c-1.8,1.2-3.1,3-4.1,5.1-1,2.2-1.5,4.7-1.5,7.6s.5,5.4,1.5,7.6c1,2.2,2.3,3.9,4.1,5.1,1.7,1.2,3.7,1.9,6,1.9Z"/>
    <path class="st1" d="M267.2,59.3c-4.1,0-7.3-.9-9.6-2.8-2.3-1.9-3.5-4.5-3.5-7.9s1.2-6.1,3.5-8c2.3-1.9,5.5-2.9,9.6-2.9h10.5v3.9h-9.9c-3.4,0-5.8.6-7.2,1.9-1.5,1.2-2.2,3-2.2,5.2s.8,3.8,2.3,5c1.5,1.2,3.6,1.8,6.3,1.8s4.2-.5,5.8-1.4c1.6-.9,2.8-2.3,3.7-4,.8-1.8,1.3-4,1.3-6.6h2.5c0,4.8-1.1,8.6-3.4,11.5-2.3,2.9-5.4,4.3-9.5,4.3ZM278,58.4l-.3-5.2v-13.5c0-3-.3-5.4-1-7.4-.7-1.9-1.7-3.4-3.2-4.4-1.4-1-3.3-1.5-5.6-1.5s-3.9.4-5.3,1.3c-1.4.8-2.6,2.1-3.5,3.9l-3.8-1.7c1-1.7,2.1-3.1,3.3-4.1,1.2-1.1,2.6-1.9,4.2-2.4,1.5-.5,3.2-.8,5.1-.8,3.1,0,5.7.6,7.8,1.9,2.1,1.3,3.6,3.2,4.6,5.7,1,2.5,1.5,5.7,1.5,9.5v18.8h-3.9Z"/>
    <path class="st1" d="M288.5,58.4V23.4h4.2v35h-4.2ZM290.3,39.2c0-3.8.7-6.8,2.1-9.2,1.4-2.3,3.3-4,5.5-5.1,2.3-1.1,4.7-1.6,7.2-1.6v3.9c-2.1,0-4,.4-5.9,1.1-1.9.7-3.4,1.9-4.7,3.6-1.2,1.7-1.8,4-1.8,7l-2.5.4Z"/>
    <path class="st1" d="M304.4,27.3v-3.9h21.6v3.9h-21.6ZM320.9,59.3c-3.2,0-5.7-.9-7.6-2.6-1.8-1.7-2.7-4.1-2.7-7.2V12.5h4.2v37c0,1.9.5,3.3,1.6,4.4,1.1,1,2.6,1.6,4.5,1.6s1.1,0,1.6-.2c.5-.2,1.3-.6,2.3-1.3l1.8,3.6c-1.3.7-2.3,1.2-3.2,1.4s-1.7.3-2.6.3Z"/>
    <path class="st1" d="M331.2,58.4V23.4h3.9l.3,6.4v28.6h-4.2ZM356.3,40.5c0-3.9-.5-6.8-1.4-8.8-.9-2-2.1-3.4-3.7-4.1-1.6-.7-3.3-1.1-5.3-1.1-3.3,0-5.9,1.2-7.8,3.7-1.9,2.5-2.8,5.9-2.8,10.3h-2.6c0-3.7.5-6.9,1.6-9.6,1.1-2.7,2.6-4.7,4.7-6.1,2.1-1.4,4.6-2.1,7.6-2.1s5.1.5,7.2,1.6c2.1,1.1,3.7,2.8,4.9,5.2,1.2,2.4,1.8,5.5,1.7,9.5v1.6h-4.2ZM356.3,58.4v-17.9h4.2v17.9h-4.2Z"/>
    <path class="st1" d="M382.3,59.3c-3.4,0-6.3-.8-8.9-2.3s-4.6-3.7-6.1-6.5c-1.5-2.8-2.2-5.9-2.2-9.5s.7-6.8,2.2-9.5c1.4-2.8,3.4-4.9,6-6.5,2.5-1.6,5.4-2.3,8.7-2.3s6.1.8,8.4,2.4c2.3,1.6,4.1,3.8,5.3,6.6,1.2,2.8,1.8,6.1,1.8,9.8h-29.9l1.6-1.3c0,3.2.5,6,1.6,8.3,1.1,2.3,2.6,4,4.6,5.2,2,1.2,4.3,1.8,6.9,1.8s5-.7,6.9-2c1.9-1.3,3.4-3,4.4-5.1l3.5,2.2c-.9,1.7-2,3.3-3.5,4.6-1.4,1.3-3.1,2.4-5,3.1-1.9.7-4,1.1-6.4,1.1ZM369.6,38.8l-1.8-1.3h27l-1.8,1.3c0-2.5-.5-4.6-1.4-6.5-.9-1.9-2.2-3.3-3.8-4.4-1.6-1-3.6-1.6-5.9-1.6s-4.3.5-6.2,1.6c-1.9,1-3.4,2.5-4.5,4.3-1.1,1.8-1.7,4-1.7,6.5Z"/>
    <path class="st1" d="M402.4,58.4V23.4h4.2v35h-4.2ZM404.1,39.2c0-3.8.7-6.8,2.1-9.2,1.4-2.3,3.3-4,5.5-5.1,2.3-1.1,4.7-1.6,7.2-1.6v3.9c-2.1,0-4,.4-5.9,1.1-1.9.7-3.4,1.9-4.7,3.6-1.2,1.7-1.8,4-1.8,7l-2.5.4Z"/>
  </g>
  <g>
    <path class="st0" d="M6.9,20.2l8.9-10c.8-.9,1.8-1.3,2.9-1.3h16.8c1.1,0,2.1.5,2.9,1.3l8.9,10"/>
    <path class="st0" d="M6.9,20.2h40.4"/>
    <path class="st0" d="M47.2,20.2v6.8c0,2.5-1.8,4.5-4,4.5h0c-1.2,0-2.3-.6-3.2-1.4-.5-.4-1.2-.4-1.7,0-.9.9-2,1.4-3.2,1.4-1.2,0-2.3-.6-3.2-1.4-.5-.4-1.2-.4-1.7,0-.9.9-2,1.4-3.2,1.4-1.2,0-2.3-.6-3.2-1.4-.5-.4-1.2-.4-1.7,0-.9.9-2,1.4-3.2,1.4-1.2,0-2.3-.6-3.2-1.4-.5-.4-1.2-.4-1.7,0-.9.9-2,1.4-3.2,1.4h0c-2.2,0-4-2-4-4.5v-6.8"/>
    <g>
      <path class="st0" d="M25.2,60.3l3.2,3.2c1.3,1.3,3.5,1.3,4.8,0,1.3-1.3,1.3-3.5,0-4.8"/>
      <path class="st0" d="M30.1,55.5l4,4c1.3,1.3,3.5,1.3,4.8,0,1.3-1.3,1.3-3.5,0-4.8l-6.2-6.2c-1.9-1.9-4.9-1.9-6.8,0l-1.4,1.4c-1.3,1.3-3.5,1.3-4.8,0-1.3-1.3-1.3-3.5,0-4.8l4.5-4.5c3-3,7.7-3.6,11.3-1.4l.8.4c.7.4,1.5.6,2.3.4l2.8-.6"/>
      <path class="st0" d="M41.3,31.6l1.6,23.9h-3.2"/>
      <path class="st0" d="M13.2,31.6l-2.4,23.9,10.4,10.4c1.3,1.3,3.5,1.3,4.8,0,1.3-1.3,1.3-3.5,0-4.8"/>
      <path class="st0" d="M12.4,39.4h12.8"/>
    </g>
  </g>
</svg>